<svg width="24" height="24" viewBox="0 0 24 24" fill="none" xmlns="http://www.w3.org/2000/svg">
<path d="M19.0711 4.92893C17.6725 3.53041 15.8907 2.578 13.9509 2.19215C12.0111 1.8063 10.0004 2.00433 8.17317 2.7612C6.3459 3.51808 4.78412 4.79981 3.6853 6.4443C2.58649 8.08879 2 10.0222 2 12C2 13.9778 2.58649 15.9112 3.6853 17.5557C4.78412 19.2002 6.3459 20.4819 8.17316 21.2388C10.0004 21.9957 12.0111 22.1937 13.9509 21.8079C15.8907 21.422 17.6725 20.4696 19.0711 19.0711" stroke="white" stroke-width="2"/>
<path d="M9 12L8.21913 12.6247L7.71938 12L8.21913 11.3753L9 12ZM21 11C21.5523 11 22 11.4477 22 12C22 12.5523 21.5523 13 21 13V11ZM12.2191 17.6247L8.21913 12.6247L9.78087 11.3753L13.7809 16.3753L12.2191 17.6247ZM8.21913 11.3753L12.2191 6.3753L13.7809 7.6247L9.78087 12.6247L8.21913 11.3753ZM9 11L21 11V13L9 13V11Z" fill="white"/>
</svg>
