<svg width="48" height="48" viewBox="0 0 48 48" fill="none" xmlns="http://www.w3.org/2000/svg">
<path d="M41 0H7C5.14348 0 3.36301 0.737498 2.05025 2.05025C0.737498 3.36301 0 5.14348 0 7V31.93C0 33.7865 0.737498 35.567 2.05025 36.8797C3.36301 38.1925 5.14348 38.93 7 38.93H22V44H15.06C14.5296 44 14.0209 44.2107 13.6458 44.5858C13.2707 44.9609 13.06 45.4696 13.06 46C13.06 46.5304 13.2707 47.0391 13.6458 47.4142C14.0209 47.7893 14.5296 48 15.06 48H32.94C33.4704 48 33.9791 47.7893 34.3542 47.4142C34.7293 47.0391 34.94 46.5304 34.94 46C34.94 45.4696 34.7293 44.9609 34.3542 44.5858C33.9791 44.2107 33.4704 44 32.94 44H26V38.93H41C42.8565 38.93 44.637 38.1925 45.9497 36.8797C47.2625 35.567 48 33.7865 48 31.93V7C48 5.14348 47.2625 3.36301 45.9497 2.05025C44.637 0.737498 42.8565 0 41 0ZM7 4H41C41.7956 4 42.5587 4.31607 43.1213 4.87868C43.6839 5.44129 44 6.20435 44 7V27.61H4V7C4 6.20435 4.31607 5.44129 4.87868 4.87868C5.44129 4.31607 6.20435 4 7 4ZM41 34.93H7C6.20435 34.93 5.44129 34.6139 4.87868 34.0513C4.31607 33.4887 4 32.7256 4 31.93V31.61H44V31.93C44 32.7256 43.6839 33.4887 43.1213 34.0513C42.5587 34.6139 41.7956 34.93 41 34.93Z" fill="white"/>
</svg>
