<svg width="36" height="42" viewBox="0 0 36 42" fill="none" xmlns="http://www.w3.org/2000/svg">
<path d="M18 0C8.076 0 0 8.076 0 18C0 25.833 5.046 32.496 12.048 34.962V39H3V42H33V39H24V34.944C30.978 32.466 36 25.815 36 18C36 8.076 27.924 0 18 0ZM18 3C26.301 3 33 9.699 33 18C33 26.301 26.301 33 18 33C9.699 33 3 26.301 3 18C3 9.699 9.699 3 18 3ZM18 9C13.05 9 9 13.05 9 18C9 22.953 13.05 27 18 27C22.95 27 27 22.953 27 18C27 13.05 22.95 9 18 9ZM18 12C21.33 12 24 14.67 24 18C24 21.33 21.33 24 18 24C14.67 24 12 21.33 12 18C12 14.67 14.67 12 18 12ZM21 35.724V39H15.048V35.736C16.008 35.895 16.992 36 18 36C19.023 36 20.022 35.889 21 35.724Z" fill="white"/>
</svg>
